<?xml version="1.0" encoding="UTF-8" standalone="no"?> <svg width="64" height="64" viewBox="0 0 64 64" fill="none" xmlns="http://www.w3.org/2000/svg">
<path d="M57 3H7C5.93913 3 4.92172 3.42143 4.17157 4.17157C3.42143 4.92172 3 5.93913 3 7V37C3.00287 37.8846 3.29887 38.7432 3.84169 39.4416C4.38451 40.1401 5.14352 40.6389 6 40.86V28C6.00211 27.651 6.09552 27.3086 6.27095 27.0068C6.44638 26.7051 6.69772 26.4545 7 26.28V8C7 7.73478 7.10536 7.48043 7.29289 7.29289C7.48043 7.10536 7.73478 7 8 7H33.9L17.62 26.84C17.8695 27.175 18.0029 27.5823 18 28V41H57C58.0609 41 59.0783 40.5786 59.8284 39.8284C60.5786 39.0783 61 38.0609 61 37V7C61 5.93913 60.5786 4.92172 59.8284 4.17157C59.0783 3.42143 58.0609 3 57 3Z" fill="#79BD9A"/>
<path d="M56 7H33.9L17.62 26.84C17.8695 27.175 18.0029 27.5823 18 28V37H56C56.2652 37 56.5196 36.8946 56.7071 36.7071C56.8946 36.5196 57 36.2652 57 36V8C57 7.73478 56.8946 7.48043 56.7071 7.29289C56.5196 7.10536 56.2652 7 56 7Z" fill="#CFF09E"/>
<path d="M28.93 37H37.1C35.8319 36.3464 34.4266 36.0037 33 36C31.5828 36.0023 30.1869 36.3452 28.93 37V37Z" fill="#656B76"/>
<path d="M53 36C51.5734 36.0037 50.1681 36.3464 48.9 37H56C56.2233 36.9936 56.4381 36.9127 56.61 36.77C55.4739 36.2633 54.244 36.001 53 36Z" fill="#656B76"/>
<path d="M46 31H43.72C43.5091 30.9998 43.3037 30.933 43.1331 30.8091C42.9625 30.6852 42.8354 30.5105 42.77 30.31L41 25V17L42.77 11.69C42.8354 11.4895 42.9625 11.3148 43.1331 11.1909C43.3037 11.067 43.5091 11.0002 43.72 11H46C46.2652 11 46.5196 11.1054 46.7071 11.2929C46.8946 11.4804 47 11.7348 47 12V30C47 30.2652 46.8946 30.5196 46.7071 30.7071C46.5196 30.8946 46.2652 31 46 31Z" fill="#A8DBA8"/>
<path d="M47 17H35V25H47V17Z" fill="#79BD9A"/>
<path d="M35 25L28.79 21.9C28.6209 21.8181 28.4783 21.6903 28.3786 21.5311C28.2788 21.3719 28.2259 21.1879 28.2259 21C28.2259 20.8121 28.2788 20.6281 28.3786 20.4689C28.4783 20.3097 28.6209 20.1819 28.79 20.1L35 17V25Z" fill="#A8DBA8"/>
<path d="M47 17H49C49.5304 17 50.0391 17.2107 50.4142 17.5858C50.7893 17.9609 51 18.4696 51 19C51 19.5304 50.7893 20.0391 50.4142 20.4142C50.0391 20.7893 49.5304 21 49 21H47V17Z" fill="#A8DBA8"/>
<path d="M47 21H49C49.5304 21 50.0391 21.2107 50.4142 21.5858C50.7893 21.9609 51 22.4696 51 23C51 23.5304 50.7893 24.0391 50.4142 24.4142C50.0391 24.7893 49.5304 25 49 25H47V21Z" fill="#A8DBA8"/>
<path d="M26.5 29H32.5V33H26.5C25.9696 33 25.4609 32.7893 25.0858 32.4142C24.7107 32.0391 24.5 31.5304 24.5 31C24.5 30.4696 24.7107 29.9609 25.0858 29.5858C25.4609 29.2107 25.9696 29 26.5 29V29Z" fill="#79BD9A"/>
<path d="M18 11H24V15H18C17.4696 15 16.9609 14.7893 16.5858 14.4142C16.2107 14.0391 16 13.5304 16 13C16 12.4696 16.2107 11.9609 16.5858 11.5858C16.9609 11.2107 17.4696 11 18 11V11Z" fill="#CFF09E"/>
<path d="M26.5 29C25.9696 29 25.4609 29.2107 25.0858 29.5858C24.7107 29.9609 24.5 30.4696 24.5 31C24.5 31.5304 24.7107 32.0391 25.0858 32.4142C25.4609 32.7893 25.9696 33 26.5 33H28V29H26.5Z" fill="#A8DBA8"/>
<path d="M18 11C17.4696 11 16.9609 11.2107 16.5858 11.5858C16.2107 11.9609 16 12.4696 16 13C16 13.5304 16.2107 14.0391 16.5858 14.4142C16.9609 14.7893 17.4696 15 18 15H19.5V11H18Z" fill="#A8DBA8"/>
<path d="M53 37C51.8016 37.0007 50.6187 37.2707 49.5386 37.79C48.4586 38.3092 47.509 39.0645 46.76 40H39.24C38.2036 38.7081 36.7917 37.7698 35.1993 37.3145C33.6068 36.8592 31.9124 36.9093 30.3496 37.458C28.7869 38.0067 27.433 39.0269 26.4748 40.3778C25.5166 41.7287 25.0013 43.3438 25 45V57C25 58.0609 25.4214 59.0783 26.1716 59.8284C26.9217 60.5786 27.9391 61 29 61C30.0609 61 31.0783 60.5786 31.8284 59.8284C32.5786 59.0783 33 58.0609 33 57V53C34.1984 52.9993 35.3813 52.7293 36.4614 52.21C37.5414 51.6908 38.491 50.9355 39.24 50H46.76C47.509 50.9355 48.4586 51.6908 49.5386 52.21C50.6187 52.7293 51.8016 52.9993 53 53V57C53 58.0609 53.4214 59.0783 54.1716 59.8284C54.9217 60.5786 55.9391 61 57 61C58.0609 61 59.0783 60.5786 59.8284 59.8284C60.5786 59.0783 61 58.0609 61 57V45C61 42.8783 60.1571 40.8434 58.6569 39.3431C57.1566 37.8429 55.1217 37 53 37Z" fill="#A8DBA8"/>
<path d="M53 41C51.9391 41 50.9217 41.4214 50.1716 42.1716C49.4214 42.9217 49 43.9391 49 45H53V41Z" fill="#79BD9A"/>
<path d="M49 45C49 46.0609 49.4214 47.0783 50.1716 47.8284C50.9217 48.5786 51.9391 49 53 49V45H49Z" fill="#CFF09E"/>
<path d="M53 41V45H57C57 43.9391 56.5786 42.9217 55.8284 42.1716C55.0783 41.4214 54.0609 41 53 41Z" fill="#CFF09E"/>
<path d="M53 49C54.0609 49 55.0783 48.5786 55.8284 47.8284C56.5786 47.0783 57 46.0609 57 45H53V49Z" fill="#79BD9A"/>
<path d="M8 41V26C7.46957 26 6.96086 26.2107 6.58579 26.5858C6.21071 26.9609 6 27.4696 6 28V56H18V52.82C15.2059 52.3477 12.669 50.9018 10.8388 48.7385C9.00849 46.5751 8.00287 43.8338 8 41V41Z" fill="#CFF09E"/>
<path d="M20 56H3C2.44772 56 2 56.4477 2 57V60C2 60.5523 2.44772 61 3 61H20C20.5523 61 21 60.5523 21 60V57C21 56.4477 20.5523 56 20 56Z" fill="#CFF09E"/>
<path d="M11 38H13C13.2652 38 13.5196 38.1054 13.7071 38.2929C13.8946 38.4804 14 38.7348 14 39V56H10V39C10 38.7348 10.1054 38.4804 10.2929 38.2929C10.4804 38.1054 10.7348 38 11 38V38Z" fill="#79BD9A"/>
<path d="M12 34C13.1046 34 14 33.1046 14 32C14 30.8954 13.1046 30 12 30C10.8954 30 10 30.8954 10 32C10 33.1046 10.8954 34 12 34Z" fill="#79BD9A"/>
<path d="M36 44H34V42C34 41.7348 33.8946 41.4804 33.7071 41.2929C33.5196 41.1054 33.2652 41 33 41C32.7348 41 32.4804 41.1054 32.2929 41.2929C32.1054 41.4804 32 41.7348 32 42V44H30C29.7348 44 29.4804 44.1054 29.2929 44.2929C29.1054 44.4804 29 44.7348 29 45C29 45.2652 29.1054 45.5196 29.2929 45.7071C29.4804 45.8946 29.7348 46 30 46H32V48C32 48.2652 32.1054 48.5196 32.2929 48.7071C32.4804 48.8946 32.7348 49 33 49C33.2652 49 33.5196 48.8946 33.7071 48.7071C33.8946 48.5196 34 48.2652 34 48V46H36C36.2652 46 36.5196 45.8946 36.7071 45.7071C36.8946 45.5196 37 45.2652 37 45C37 44.7348 36.8946 44.4804 36.7071 44.2929C36.5196 44.1054 36.2652 44 36 44Z" fill="#3B8686"/>
<path d="M53 40C52.0111 40 51.0444 40.2932 50.2222 40.8427C49.3999 41.3921 48.759 42.173 48.3806 43.0866C48.0022 44.0002 47.9031 45.0055 48.0961 45.9755C48.289 46.9454 48.7652 47.8363 49.4645 48.5355C50.1637 49.2348 51.0546 49.711 52.0245 49.9039C52.9945 50.0969 53.9998 49.9978 54.9134 49.6194C55.8271 49.241 56.6079 48.6001 57.1574 47.7779C57.7068 46.9556 58 45.9889 58 45C58 43.6739 57.4732 42.4021 56.5355 41.4645C55.5979 40.5268 54.3261 40 53 40V40ZM55.83 44H54V42.17C54.4223 42.3191 54.8058 42.5609 55.1225 42.8775C55.4391 43.1942 55.6809 43.5777 55.83 44ZM52 42.17V44H50.17C50.3191 43.5777 50.5609 43.1942 50.8775 42.8775C51.1942 42.5609 51.5777 42.3191 52 42.17ZM50.17 46H52V47.83C51.5777 47.6809 51.1942 47.4391 50.8775 47.1225C50.5609 46.8058 50.3191 46.4223 50.17 46ZM54 47.83V46H55.83C55.6809 46.4223 55.4391 46.8058 55.1225 47.1225C54.8058 47.4391 54.4223 47.6809 54 47.83Z" fill="#3B8686"/>
<path d="M41 47C41.5523 47 42 46.5523 42 46C42 45.4477 41.5523 45 41 45C40.4477 45 40 45.4477 40 46C40 46.5523 40.4477 47 41 47Z" fill="#3B8686"/>
<path d="M45 47C45.5523 47 46 46.5523 46 46C46 45.4477 45.5523 45 45 45C44.4477 45 44 45.4477 44 46C44 46.5523 44.4477 47 45 47Z" fill="#3B8686"/>
<path d="M12 29C11.4067 29 10.8266 29.1759 10.3333 29.5056C9.83994 29.8352 9.45543 30.3038 9.22836 30.8519C9.0013 31.4001 8.94189 32.0033 9.05765 32.5853C9.1734 33.1672 9.45912 33.7018 9.87868 34.1213C10.2982 34.5409 10.8328 34.8266 11.4147 34.9424C11.9967 35.0581 12.5999 34.9987 13.1481 34.7716C13.6962 34.5446 14.1648 34.1601 14.4944 33.6667C14.8241 33.1734 15 32.5933 15 32C15 31.2044 14.6839 30.4413 14.1213 29.8787C13.5587 29.3161 12.7957 29 12 29ZM12 33C11.8022 33 11.6089 32.9414 11.4444 32.8315C11.28 32.7216 11.1518 32.5654 11.0761 32.3827C11.0004 32.2 10.9806 31.9989 11.0192 31.8049C11.0578 31.6109 11.153 31.4327 11.2929 31.2929C11.4327 31.153 11.6109 31.0578 11.8049 31.0192C11.9989 30.9806 12.2 31.0004 12.3827 31.0761C12.5654 31.1518 12.7216 31.28 12.8315 31.4444C12.9414 31.6089 13 31.8022 13 32C13 32.2652 12.8946 32.5196 12.7071 32.7071C12.5196 32.8946 12.2652 33 12 33Z" fill="#3B8686"/>
<path d="M28.35 22.79L34.55 25.89C34.6202 25.9223 34.6941 25.9458 34.77 25.96H40.28L42.05 31.28C42.1101 31.4861 42.2349 31.6673 42.406 31.797C42.5771 31.9267 42.7853 31.9978 43 32H47C47.2652 32 47.5196 31.8946 47.7071 31.7071C47.8946 31.5196 48 31.2652 48 31V26H49C49.7956 26 50.5587 25.6839 51.1213 25.1213C51.6839 24.5587 52 23.7956 52 23C51.9983 22.2613 51.7242 21.5491 51.23 21C51.7242 20.4509 51.9983 19.7387 52 19C52 18.2043 51.6839 17.4413 51.1213 16.8787C50.5587 16.3161 49.7956 16 49 16H48V11C48 10.7348 47.8946 10.4804 47.7071 10.2929C47.5196 10.1053 47.2652 9.99999 47 9.99999H43C42.7819 9.9886 42.5661 10.0489 42.3856 10.1717C42.205 10.2945 42.0696 10.473 42 10.68L40.28 16H34.83C34.734 16.0209 34.6402 16.051 34.55 16.09V16.09L28.35 19.19C28.0172 19.3559 27.7372 19.6112 27.5415 19.9274C27.3458 20.2436 27.2421 20.6081 27.2421 20.98C27.2421 21.3518 27.3458 21.7163 27.5415 22.0325C27.7372 22.3487 28.0172 22.6041 28.35 22.77V22.79ZM36 18H46V24H36V18ZM43.72 30L42.39 26H46V30H43.72ZM49 24H48V22H49C49.2652 22 49.5196 22.1053 49.7071 22.2929C49.8946 22.4804 50 22.7348 50 23C50 23.2652 49.8946 23.5196 49.7071 23.7071C49.5196 23.8946 49.2652 24 49 24ZM50 19C50 19.2652 49.8946 19.5196 49.7071 19.7071C49.5196 19.8946 49.2652 20 49 20H48V18H49C49.2652 18 49.5196 18.1053 49.7071 18.2929C49.8946 18.4804 50 18.7348 50 19ZM43.72 12H46V16H42.39L43.72 12ZM34 18.62V23.38L29.24 21L34 18.62Z" fill="#3B8686"/>
<path d="M24 21C24 20.7348 23.8946 20.4804 23.7071 20.2929C23.5196 20.1054 23.2652 20 23 20H21C20.7348 20 20.4804 20.1054 20.2929 20.2929C20.1054 20.4804 20 20.7348 20 21C20 21.2652 20.1054 21.5196 20.2929 21.7071C20.4804 21.8946 20.7348 22 21 22H23C23.2652 22 23.5196 21.8946 23.7071 21.7071C23.8946 21.5196 24 21.2652 24 21Z" fill="#3B8686"/>
<path d="M14 22H16C16.2652 22 16.5196 21.8946 16.7071 21.7071C16.8946 21.5196 17 21.2652 17 21C17 20.7348 16.8946 20.4804 16.7071 20.2929C16.5196 20.1054 16.2652 20 16 20H14C13.7348 20 13.4804 20.1054 13.2929 20.2929C13.1054 20.4804 13 20.7348 13 21C13 21.2652 13.1054 21.5196 13.2929 21.7071C13.4804 21.8946 13.7348 22 14 22V22Z" fill="#3B8686"/>
<path d="M23.5 31C23.5 31.7956 23.8161 32.5587 24.3787 33.1213C24.9413 33.6839 25.7044 34 26.5 34H32.5C32.7652 34 33.0196 33.8946 33.2071 33.7071C33.3946 33.5196 33.5 33.2652 33.5 33V29C33.5 28.7348 33.3946 28.4804 33.2071 28.2929C33.0196 28.1054 32.7652 28 32.5 28H26.5C25.7044 28 24.9413 28.3161 24.3787 28.8787C23.8161 29.4413 23.5 30.2044 23.5 31V31ZM31.5 32H29V30H31.5V32ZM26.5 30H27V32H26.5C26.2348 32 25.9804 31.8946 25.7929 31.7071C25.6054 31.5196 25.5 31.2652 25.5 31C25.5 30.7348 25.6054 30.4804 25.7929 30.2929C25.9804 30.1054 26.2348 30 26.5 30Z" fill="#3B8686"/>
<path d="M18 16H24C24.2652 16 24.5196 15.8946 24.7071 15.7071C24.8946 15.5196 25 15.2652 25 15V11C25 10.7348 24.8946 10.4804 24.7071 10.2929C24.5196 10.1054 24.2652 10 24 10H18C17.2044 10 16.4413 10.3161 15.8787 10.8787C15.3161 11.4413 15 12.2044 15 13C15 13.7956 15.3161 14.5587 15.8787 15.1213C16.4413 15.6839 17.2044 16 18 16ZM23 14H20.5V12H23V14ZM18 12H18.5V14H18C17.7348 14 17.4804 13.8946 17.2929 13.7071C17.1054 13.5196 17 13.2652 17 13C17 12.7348 17.1054 12.4804 17.2929 12.2929C17.4804 12.1054 17.7348 12 18 12Z" fill="#3B8686"/>
<path d="M42 22C42.2652 22 42.5196 21.8946 42.7071 21.7071C42.8946 21.5196 43 21.2652 43 21C43 20.7348 42.8946 20.4804 42.7071 20.2929C42.5196 20.1054 42.2652 20 42 20H40C39.7348 20 39.4804 20.1054 39.2929 20.2929C39.1054 20.4804 39 20.7348 39 21C39 21.2652 39.1054 21.5196 39.2929 21.7071C39.4804 21.8946 39.7348 22 40 22H42Z" fill="#3B8686"/>
<path d="M62 7C62 5.67392 61.4732 4.40215 60.5355 3.46447C59.5979 2.52678 58.3261 2 57 2H7C5.67392 2 4.40215 2.52678 3.46447 3.46447C2.52678 4.40215 2 5.67392 2 7V37C2.0005 37.9724 2.28456 38.9236 2.8174 39.7371C3.35025 40.5506 4.10874 41.191 5 41.58V55H3C2.46957 55 1.96086 55.2107 1.58579 55.5858C1.21071 55.9609 1 56.4696 1 57V60C1 60.5304 1.21071 61.0391 1.58579 61.4142C1.96086 61.7893 2.46957 62 3 62H20C20.5304 62 21.0391 61.7893 21.4142 61.4142C21.7893 61.0391 22 60.5304 22 60V57C22 56.4696 21.7893 55.9609 21.4142 55.5858C21.0391 55.2107 20.5304 55 20 55H19V42H24.51C24.1709 42.9638 23.9985 43.9783 24 45V57C24 58.3261 24.5268 59.5979 25.4645 60.5355C26.4021 61.4732 27.6739 62 29 62C30.3261 62 31.5979 61.4732 32.5355 60.5355C33.4732 59.5979 34 58.3261 34 57V54C36.205 53.7374 38.2352 52.669 39.7 51H46.3C47.7648 52.669 49.795 53.7374 52 54V57C52 58.3261 52.5268 59.5979 53.4645 60.5355C54.4021 61.4732 55.6739 62 57 62C58.3261 62 59.5979 61.4732 60.5355 60.5355C61.4732 59.5979 62 58.3261 62 57V45C62.0041 43.3642 61.5578 41.7589 60.71 40.36C61.5422 39.439 62.002 38.2413 62 37V7ZM56 36H19V28C19 27.2044 18.6839 26.4413 18.1213 25.8787C17.5587 25.3161 16.7956 25 16 25H8V8H56V36ZM47.35 38C46.9714 38.302 46.6201 38.6366 46.3 39H39.7C39.3799 38.6366 39.0286 38.302 38.65 38H47.35ZM20 60H3V57H20V60ZM13 55H11V39H13V55ZM15 55V38C15 37.7348 14.8946 37.4804 14.7071 37.2929C14.5196 37.1054 14.2652 37 14 37H10C9.73478 37 9.48043 37.1054 9.29289 37.2929C9.10536 37.4804 9 37.7348 9 38V55H7V40.88V28C6.99899 27.8274 7.04267 27.6575 7.12679 27.5068C7.2109 27.3561 7.33258 27.2297 7.48 27.14C7.63727 27.0467 7.81713 26.9982 8 27H16C16.2652 27 16.5196 27.1054 16.7071 27.2929C16.8946 27.4804 17 27.7348 17 28V55H15ZM19 40V38H27.35C26.6418 38.5697 26.0247 39.2441 25.52 40H19ZM60 57C60 57.7956 59.6839 58.5587 59.1213 59.1213C58.5587 59.6839 57.7956 60 57 60C56.2044 60 55.4413 59.6839 54.8787 59.1213C54.3161 58.5587 54 57.7956 54 57V53C54 52.7348 53.8946 52.4804 53.7071 52.2929C53.5196 52.1054 53.2652 52 53 52C51.951 51.9987 50.9157 51.7617 49.9706 51.3065C49.0256 50.8513 48.1949 50.1895 47.54 49.37C47.4459 49.254 47.327 49.1605 47.192 49.0965C47.057 49.0325 46.9094 48.9995 46.76 49H39.24C39.0906 48.9995 38.943 49.0325 38.808 49.0965C38.673 49.1605 38.5541 49.254 38.46 49.37C37.8051 50.1895 36.9744 50.8513 36.0294 51.3065C35.0843 51.7617 34.049 51.9987 33 52C32.7348 52 32.4804 52.1054 32.2929 52.2929C32.1054 52.4804 32 52.7348 32 53V57C32 57.7956 31.6839 58.5587 31.1213 59.1213C30.5587 59.6839 29.7956 60 29 60C28.2044 60 27.4413 59.6839 26.8787 59.1213C26.3161 58.5587 26 57.7956 26 57V45C26.0022 43.5512 26.4538 42.1388 27.2926 40.9575C28.1315 39.7763 29.3161 38.8844 30.6833 38.4049C32.0504 37.9254 33.5327 37.882 34.9256 38.2805C36.3185 38.679 37.5534 39.4999 38.46 40.63C38.5541 40.746 38.673 40.8395 38.808 40.9035C38.943 40.9675 39.0906 41.0005 39.24 41H46.76C46.9094 41.0005 47.057 40.9675 47.192 40.9035C47.327 40.8395 47.4459 40.746 47.54 40.63C48.4466 39.4999 49.6815 38.679 51.0744 38.2805C52.4673 37.882 53.9496 37.9254 55.3167 38.4049C56.6839 38.8844 57.8685 39.7763 58.7074 40.9575C59.5462 42.1388 59.9978 43.5512 60 45V57ZM57.56 37.25C57.8445 36.8954 57.9996 36.4546 58 36V8C58 7.46957 57.7893 6.96086 57.4142 6.58579C57.0391 6.21071 56.5304 6 56 6H8C7.46957 6 6.96086 6.21071 6.58579 6.58579C6.21071 6.96086 6 7.46957 6 8V25.77C5.68615 26.0507 5.43491 26.3943 5.26262 26.7786C5.09033 27.1628 5.00085 27.5789 5 28V39.24C4.6849 38.9582 4.43292 38.6129 4.26058 38.2269C4.08825 37.8409 3.99945 37.4228 4 37V7C4 6.20435 4.31607 5.44129 4.87868 4.87868C5.44129 4.31607 6.20435 4 7 4H57C57.7956 4 58.5587 4.31607 59.1213 4.87868C59.6839 5.44129 60 6.20435 60 7V37C60.0037 37.6202 59.8112 38.2258 59.45 38.73C58.8882 38.1553 58.2527 37.6576 57.56 37.25V37.25Z" fill="#3B8686"/>
</svg>
